<svg fill="none" height="24" viewBox="0 0 24 24" width="24" xmlns="http://www.w3.org/2000/svg"><path d="m24 0h-24v24h24z" fill="#fff" opacity=".58"/><g fill="#292d32"><path d="m12.2 5.87c-.07 0-.14 0-.2.01v-3.87001c.07-.01.13-.00999.2-.00999 2.26 0 4.2.69 5.79 1.86.5.36.54 1.09.1 1.52l-1.39 1.36001c-.34.33-.86.38999-1.25.11999-.75-.52-1.82-.99-3.25-.99z"/><path d="m21.8 12.2197c0 3.05-1.09 5.61-2.98 7.36-1.65 1.53-3.92 2.42-6.62 2.42-.07 0-.13 0-.2-.01v-3.87c.07.01.13.01.2.01 1.49 0 2.62-.41 3.47-1 1.33-.93 1.93-2.32 2.04-3.24h-4.51c-.55 0-1-.45-1-1v-1.71c0-.55.45-1 1-1h7.55c.51 0 .94.38.99.89.04.35.06.72.06 1.15z"/><path d="m6.49922 10.0198c-.2.62-.32 1.29-.32 1.98s.12 1.35.33 1.98c.78 2.35 2.94 4.06 5.48998 4.14v3.87c-3.81998-.07-7.10998-2.29-8.71998-5.5h-.01c-.68-1.36-1.07-2.88-1.07-4.49s.39-3.13003 1.07-4.49003c1.61-3.21 4.9-5.43 8.72998-5.5v3.87001c-2.35998.07-4.36998 1.52999-5.28998 3.59999-.08.18-.15.36001-.21.54003z" opacity=".4"/></g></svg>