<svg width="260" height="260" viewBox="0 0 260 260" fill="none" xmlns="http://www.w3.org/2000/svg">
<g filter="url(#filter0_d_187_8)">
<circle cx="130" cy="126" r="80" fill="url(#paint0_linear_187_8)" shape-rendering="crispEdges"/>
</g>
<path d="M157.192 137H144.456L140.552 95.784L126.216 134.056H125.96L108.872 98.344L107.336 116.648C107.165 118.397 107.08 120.467 107.08 122.856C107.08 127.976 107.72 132.691 109 137H102.6C104.179 131.709 105.331 124.925 106.056 116.648L107.784 96.04L105.16 90.6V90.408H118.984L131.464 116.584L141.256 90.408H152.776L157.192 137Z" fill="white"/>
<path d="M103.536 165H101.148L100.416 157.272L97.728 164.448H97.68L94.476 157.752L94.188 161.184C94.156 161.512 94.14 161.9 94.14 162.348C94.14 163.308 94.26 164.192 94.5 165H93.3C93.596 164.008 93.812 162.736 93.948 161.184L94.272 157.32L93.78 156.3V156.264H96.372L98.712 161.172L100.548 156.264H102.708L103.536 165ZM111.147 164.616L108.987 165.144L108.639 164.1C108.079 164.796 107.395 165.144 106.587 165.144C105.883 165.144 105.343 164.952 104.967 164.568C104.599 164.176 104.415 163.596 104.415 162.828V158.748L106.623 158.256H106.671V163.092C106.671 163.468 106.723 163.796 106.827 164.076C106.939 164.356 107.187 164.496 107.571 164.496C107.891 164.496 108.243 164.28 108.627 163.848V158.748L110.835 158.256H110.883V163.824L111.147 164.616ZM112.14 165V155.892L114.348 155.28H114.396V165H112.14ZM119.785 164.196L119.881 164.34C119.201 164.876 118.489 165.144 117.745 165.144C117.025 165.144 116.533 164.968 116.269 164.616C116.013 164.264 115.885 163.856 115.885 163.392V158.736H115.201V158.532L115.885 158.472L118.093 156.12H118.141V158.472H119.881L119.725 158.736H118.141V163.512C118.141 163.816 118.189 164.056 118.285 164.232C118.389 164.408 118.585 164.496 118.873 164.496C119.153 164.496 119.457 164.396 119.785 164.196ZM121.435 157.728L120.091 156.384L121.435 155.04L122.779 156.384L121.435 157.728ZM120.307 165V158.748L122.515 158.256H122.563V165H120.307ZM123.643 161.748V161.292H126.223V161.748H123.643ZM131.466 158.472H132.498C132.274 158.872 132.03 159.348 131.766 159.9C131.702 160.036 131.334 160.836 130.662 162.3L129.318 165.288H129.27L126.21 158.472H128.646L130.398 162.372L130.458 162.228C130.85 161.364 131.114 160.644 131.25 160.068C131.394 159.484 131.466 158.952 131.466 158.472ZM138.661 163.296L138.805 163.38C138.013 164.556 136.941 165.144 135.589 165.144C134.621 165.144 133.825 164.852 133.201 164.268C132.585 163.676 132.277 162.888 132.277 161.904C132.277 160.832 132.617 159.968 133.297 159.312C133.977 158.656 134.849 158.328 135.913 158.328C136.873 158.328 137.593 158.588 138.073 159.108C138.553 159.62 138.793 160.28 138.793 161.088L138.781 161.34H134.605C134.613 163.3 135.297 164.28 136.657 164.28C137.433 164.28 138.101 163.952 138.661 163.296ZM134.605 161.148H136.837C136.869 160.956 136.885 160.724 136.885 160.452C136.885 159.876 136.781 159.412 136.573 159.06C136.373 158.7 136.117 158.52 135.805 158.52C135.429 158.52 135.137 158.768 134.929 159.264C134.729 159.752 134.621 160.38 134.605 161.148ZM146.158 160.644V165H143.902V160.38C143.902 160.02 143.846 159.696 143.734 159.408C143.622 159.12 143.378 158.976 143.002 158.976C142.634 158.976 142.282 159.156 141.946 159.516V165H139.69V158.748L141.898 158.256H141.946V159.276C142.506 158.644 143.186 158.328 143.986 158.328C144.69 158.328 145.226 158.524 145.594 158.916C145.97 159.3 146.158 159.876 146.158 160.644ZM154.35 164.616L152.19 165.144L151.854 164.136C151.246 164.808 150.578 165.144 149.85 165.144C149.074 165.16 148.41 164.856 147.858 164.232C147.306 163.6 147.038 162.82 147.054 161.892C147.038 160.892 147.358 160.044 148.014 159.348C148.67 158.652 149.458 158.312 150.378 158.328C150.93 158.328 151.414 158.472 151.83 158.76V155.892L154.038 155.28H154.086V163.824L154.35 164.616ZM151.83 163.86V159.78C151.758 159.396 151.622 159.092 151.422 158.868C151.222 158.644 150.978 158.532 150.69 158.532C149.85 158.532 149.43 159.6 149.43 161.736C149.43 162.792 149.526 163.52 149.718 163.92C149.91 164.32 150.222 164.52 150.654 164.52C151.062 164.52 151.454 164.3 151.83 163.86ZM155.011 161.772C155.011 160.756 155.359 159.928 156.055 159.288C156.751 158.648 157.627 158.328 158.683 158.328C159.731 158.328 160.587 158.636 161.251 159.252C161.915 159.86 162.247 160.676 162.247 161.7C162.247 162.716 161.899 163.544 161.203 164.184C160.507 164.824 159.631 165.144 158.575 165.144C157.527 165.144 156.671 164.84 156.007 164.232C155.343 163.616 155.011 162.796 155.011 161.772ZM159.871 161.784C159.871 159.592 159.451 158.496 158.611 158.496C158.171 158.496 157.855 158.764 157.663 159.3C157.479 159.828 157.387 160.632 157.387 161.712C157.387 162.752 157.491 163.556 157.699 164.124C157.915 164.692 158.231 164.976 158.647 164.976C159.087 164.976 159.399 164.712 159.583 164.184C159.775 163.656 159.871 162.856 159.871 161.784ZM167.735 158.4L167.159 160.008C166.943 159.904 166.735 159.852 166.535 159.852C166.239 159.852 165.987 159.96 165.779 160.176C165.579 160.392 165.463 160.68 165.431 161.04V165H163.175V158.748L165.311 158.256H165.359V160.608H165.383C165.463 159.928 165.671 159.38 166.007 158.964C166.351 158.54 166.755 158.328 167.219 158.328C167.371 158.328 167.543 158.352 167.735 158.4Z" fill="white"/>
<defs>
<filter id="filter0_d_187_8" x="0" y="0" width="260" height="260" filterUnits="userSpaceOnUse" color-interpolation-filters="sRGB">
<feFlood flood-opacity="0" result="BackgroundImageFix"/>
<feColorMatrix in="SourceAlpha" type="matrix" values="0 0 0 0 0 0 0 0 0 0 0 0 0 0 0 0 0 0 127 0" result="hardAlpha"/>
<feOffset dy="4"/>
<feGaussianBlur stdDeviation="25"/>
<feComposite in2="hardAlpha" operator="out"/>
<feColorMatrix type="matrix" values="0 0 0 0 0 0 0 0 0 0 0 0 0 0 0 0 0 0 0.25 0"/>
<feBlend mode="normal" in2="BackgroundImageFix" result="effect1_dropShadow_187_8"/>
<feBlend mode="normal" in="SourceGraphic" in2="effect1_dropShadow_187_8" result="shape"/>
</filter>
<linearGradient id="paint0_linear_187_8" x1="50" y1="46" x2="215" y2="202.5" gradientUnits="userSpaceOnUse">
<stop offset="0.0729167" stop-color="#08073C"/>
<stop offset="0.625" stop-color="#440E45" stop-opacity="0.76"/>
<stop offset="1" stop-color="#08073C" stop-opacity="0.53"/>
</linearGradient>
</defs>
</svg>
